<svg width="37" height="37" viewBox="0 0 37 37" fill="none" xmlns="http://www.w3.org/2000/svg">
<path d="M5.38818 31.4345V6.23447C5.38818 5.73742 5.79113 5.33447 6.28818 5.33447H31.4882C31.9853 5.33447 32.3882 5.73742 32.3882 6.23447V31.4345C32.3882 31.9316 31.9853 32.3345 31.4882 32.3345H6.28818C5.79113 32.3345 5.38818 31.9316 5.38818 31.4345Z" stroke="#FA002C" stroke-width="2.5" stroke-linecap="round" stroke-linejoin="round"/>
<path d="M23.3882 13.5845C22.3607 12.557 20.5512 11.8423 18.8882 11.7976M14.3882 23.3345C15.3549 24.6234 17.1524 25.3586 18.8882 25.421M18.8882 11.7976C16.9095 11.7443 15.1382 12.6394 15.1382 15.0845C15.1382 19.5845 23.3882 17.3345 23.3882 21.8345C23.3882 24.401 21.1925 25.5038 18.8882 25.421M18.8882 11.7976V9.08447M18.8882 25.421V28.5845" stroke="#FA002C" stroke-width="2.5" stroke-linecap="round" stroke-linejoin="round"/>
</svg>
