<svg width="39" height="37" viewBox="0 0 39 37" fill="none" xmlns="http://www.w3.org/2000/svg">
<path fill-rule="evenodd" clip-rule="evenodd" d="M5.73939 15.3608H11.4736V32.0855H5.73939C5.21157 32.0855 4.78369 31.5095 4.78369 30.799V16.6474C4.78369 15.9368 5.21157 15.3608 5.73939 15.3608Z" stroke="#FA002C" stroke-width="2.5" stroke-linecap="round" stroke-linejoin="round"/>
<path d="M11.4734 16.6152L16.992 5.92293C17.8072 4.34318 19.7488 3.72353 21.3285 4.53887C21.6237 4.6912 21.8934 4.88828 22.1283 5.12313C23.0692 6.06408 23.5979 7.34027 23.5979 8.67097V13.6884H32.3797C33.0993 13.6884 33.7842 13.9974 34.2604 14.5368C34.7366 15.0763 34.9583 15.7942 34.869 16.5082L32.9875 29.888C32.8306 31.1434 31.7634 32.0855 30.4982 32.0855H11.4734" stroke="#FA002C" stroke-width="2.5" stroke-linecap="round" stroke-linejoin="round"/>
</svg>
