<svg width="37" height="37" viewBox="0 0 37 37" fill="none" xmlns="http://www.w3.org/2000/svg">
<path d="M31.8882 31.8345H5.88818C4.78361 31.8345 3.88818 30.939 3.88818 29.8345V12.4595C3.88818 11.3549 4.78361 10.4595 5.88818 10.4595H10.7771C11.8816 10.4595 12.7771 9.56404 12.7771 8.45947V6.83447C12.7771 5.7299 13.6725 4.83447 14.7771 4.83447H22.9993C24.1039 4.83447 24.9993 5.7299 24.9993 6.83447V8.45947C24.9993 9.56404 25.8947 10.4595 26.9993 10.4595H31.8882C32.9928 10.4595 33.8882 11.3549 33.8882 12.4595V29.8345C33.8882 30.939 32.9928 31.8345 31.8882 31.8345Z" stroke="#FA002C" stroke-width="2.5"/>
<circle cx="18.8882" cy="20.8345" r="6" stroke="#FA002C" stroke-width="2.5"/>
</svg>
