<svg width="37" height="37" viewBox="0 0 37 37" fill="none" xmlns="http://www.w3.org/2000/svg">
<path d="M28.9429 32.4751H8.97412C7.87423 32.474 6.81971 32.0366 6.04197 31.2588C5.26423 30.4811 4.8268 29.4266 4.82568 28.3267V18.1313C4.8268 17.0315 5.26423 15.9769 6.04197 15.1992C6.81971 14.4215 7.87423 13.984 8.97412 13.9829H15.9955C16.5363 13.9829 17.055 13.7681 17.4374 13.3857C17.8198 13.0033 18.0346 12.4846 18.0346 11.9438C18.0357 10.844 18.4731 9.78943 19.2509 9.01169C20.0286 8.23395 21.0831 7.79653 22.183 7.79541H28.9429C30.0428 7.79653 31.0973 8.23395 31.875 9.01169C32.6528 9.78943 33.0902 10.844 33.0913 11.9438V28.3267C33.09 29.4265 32.6525 30.4809 31.8748 31.2586C31.0971 32.0363 30.0427 32.4738 28.9429 32.4751ZM8.97412 16.0923C8.43333 16.0923 7.91468 16.3071 7.53229 16.6895C7.14989 17.0719 6.93506 17.5906 6.93506 18.1313V28.3267C6.93506 28.8675 7.14989 29.3861 7.53229 29.7685C7.91468 30.1509 8.43333 30.3657 8.97412 30.3657H28.9429C29.4837 30.3657 30.0023 30.1509 30.3847 29.7685C30.7671 29.3861 30.9819 28.8675 30.9819 28.3267V11.9438C30.9819 11.4031 30.7671 10.8844 30.3847 10.502C30.0023 10.1196 29.4837 9.90479 28.9429 9.90479H22.183C21.6422 9.90479 21.1236 10.1196 20.7412 10.502C20.3588 10.8844 20.144 11.4031 20.144 11.9438C20.1427 13.0437 19.7052 14.0981 18.9275 14.8758C18.1498 15.6535 17.0954 16.091 15.9955 16.0923H8.97412Z" fill="#FA002C"/>
<path d="M9.396 15.4258C9.11628 15.4258 8.84801 15.3147 8.65022 15.1169C8.45243 14.9191 8.34131 14.6508 8.34131 14.3711V4.59766C8.34131 4.31794 8.45243 4.04967 8.65022 3.85188C8.84801 3.65409 9.11628 3.54297 9.396 3.54297H28.521C28.8007 3.54297 29.069 3.65409 29.2668 3.85188C29.4646 4.04967 29.5757 4.31794 29.5757 4.59766V8.18359C29.5757 8.46331 29.4646 8.73158 29.2668 8.92937C29.069 9.12716 28.8007 9.23828 28.521 9.23828C28.2413 9.23828 27.973 9.12716 27.7752 8.92937C27.5774 8.73158 27.4663 8.46331 27.4663 8.18359V5.65234H10.4507V14.3711C10.4507 14.6508 10.3396 14.9191 10.1418 15.1169C9.94398 15.3147 9.67572 15.4258 9.396 15.4258Z" fill="#FA002C"/>
</svg>
