<svg width="37" height="37" viewBox="0 0 37 37" fill="none" xmlns="http://www.w3.org/2000/svg">
<path d="M14.2212 22.168L23.5545 12.168" stroke="#FA002C" stroke-width="2.5" stroke-linecap="round" stroke-linejoin="round"/>
<path d="M14.3882 14.8345C15.2166 14.8345 15.8882 14.1629 15.8882 13.3345C15.8882 12.506 15.2166 11.8345 14.3882 11.8345C13.5598 11.8345 12.8882 12.506 12.8882 13.3345C12.8882 14.1629 13.5598 14.8345 14.3882 14.8345Z" stroke="#FA002C" stroke-width="2.5" stroke-linecap="round" stroke-linejoin="round"/>
<path d="M23.3882 22.8345C24.2166 22.8345 24.8882 22.1629 24.8882 21.3345C24.8882 20.506 24.2166 19.8345 23.3882 19.8345C22.5598 19.8345 21.8882 20.506 21.8882 21.3345C21.8882 22.1629 22.5598 22.8345 23.3882 22.8345Z" stroke="#FA002C" stroke-width="2.5" stroke-linecap="round" stroke-linejoin="round"/>
<path d="M6.88818 34.1676V6.90838C6.88818 6.00468 7.24941 5.138 7.89239 4.49898C8.53537 3.85997 9.40744 3.50098 10.3168 3.50098H27.4596C28.3689 3.50098 29.241 3.85997 29.884 4.49898C30.527 5.138 30.8882 6.00468 30.8882 6.90838V34.1676L25.7453 30.7602L22.3168 34.1676L18.8882 30.7602L15.4596 34.1676L12.031 30.7602L6.88818 34.1676Z" stroke="#FA002C" stroke-width="2.5" stroke-linecap="round" stroke-linejoin="round"/>
</svg>
